<?xml version="1.0" encoding="utf-8"?>
<svg xmlns="http://www.w3.org/2000/svg" width="33" height="33" class="segno"><path fill="#add8e6" d="M0 0h33v33h-33z"/><path class="qrline" stroke="#8b0000" d="M4 4.5h7m3 0h1m3 0h1m3 0h7m-25 1h1m5 0h1m3 0h1m1 0h1m5 0h1m5 0h1m-25 1h1m1 0h3m1 0h1m1 0h1m2 0h1m1 0h1m1 0h2m1 0h1m1 0h3m1 0h1m-25 1h1m1 0h3m1 0h1m3 0h3m1 0h3m1 0h1m1 0h3m1 0h1m-25 1h1m1 0h3m1 0h1m1 0h2m3 0h2m3 0h1m1 0h3m1 0h1m-25 1h1m5 0h1m1 0h2m1 0h4m1 0h1m1 0h1m5 0h1m-25 1h7m1 0h1m1 0h1m1 0h1m1 0h1m1 0h1m1 0h7m-14 1h1m2 0h2m-15 1h1m2 0h1m1 0h1m1 0h3m1 0h3m2 0h1m1 0h2m1 0h1m-23 1h2m6 0h1m3 0h1m2 0h2m2 0h2m1 0h1m-20 1h4m1 0h3m2 0h5m1 0h1m2 0h1m-23 1h3m1 0h2m1 0h2m1 0h4m1 0h1m1 0h1m4 0h2m-24 1h2m4 0h2m2 0h2m1 0h1m3 0h3m1 0h2m-23 1h2m2 0h1m2 0h2m2 0h2m1 0h4m2 0h1m-17 1h5m1 0h1m1 0h1m2 0h1m1 0h1m-16 1h3m3 0h1m1 0h1m1 0h3m6 0h3m-24 1h3m1 0h1m1 0h2m3 0h1m2 0h7m1 0h3m-17 1h2m3 0h2m1 0h1m3 0h1m2 0h2m-25 1h7m3 0h1m1 0h3m1 0h1m1 0h1m1 0h3m-23 1h1m5 0h1m5 0h1m1 0h1m1 0h1m3 0h1m1 0h2m-24 1h1m1 0h3m1 0h1m1 0h1m3 0h1m3 0h5m1 0h1m1 0h1m-25 1h1m1 0h3m1 0h1m2 0h1m1 0h9m2 0h3m-25 1h1m1 0h3m1 0h1m2 0h2m1 0h5m1 0h1m3 0h2m-24 1h1m5 0h1m1 0h2m3 0h1m1 0h1m1 0h1m1 0h2m1 0h2m-24 1h7m3 0h1m3 0h2m3 0h6"/></svg>
